<svg xmlns="http://www.w3.org/2000/svg" width="11" height="7.999" viewBox="927 278 11 7.999"><path d="m930.646 285.857-3.5-3.417a.472.472 0 0 1-.043-.637.498.498 0 0 1 .043-.047l.707-.684a.514.514 0 0 1 .707 0l2.44 2.394 5.44-5.325a.508.508 0 0 1 .353-.141.508.508 0 0 1 .353.141l.707.684a.476.476 0 0 1 .128.212.471.471 0 0 1-.09.43.49.49 0 0 1-.038.041l-6.5 6.351a.507.507 0 0 1-.352.14.51.51 0 0 1-.346-.133.507.507 0 0 1-.009-.009Z" fill="#52C3BF" fill-rule="evenodd" data-name="checkmark-1"/></svg>