<svg width="154" height="58" fill="none" xmlns="http://www.w3.org/2000/svg"><path d="M18.887.417C-.719.417-4.777 27.996 9.033 41.82c7.869 7.885 13.817 15.77 23.656 15.77 11.847 0 13.8-9.87 13.8-27.602 0-17.7-9.941-29.572-27.602-29.572z" fill="#FFF04B"/><path d="M82.041 28.115c-1.921 0-3.43-1.573-3.43-3.574 0-2 1.509-3.573 3.43-3.573 1.906 0 3.463 1.604 3.463 3.573-.008 1.97-1.557 3.574-3.463 3.574zm0-10.983c-4.073 0-7.385 3.328-7.385 7.417 0 4.09 3.312 7.417 7.385 7.417 4.074 0 7.385-3.327 7.385-7.417 0-4.097-3.319-7.417-7.385-7.417zM114.115 28.226c-2.105 0-3.685-1.596-3.685-3.716 0-2.105 1.588-3.685 3.685-3.685 2.001 0 3.518 1.588 3.518 3.685-.008 2.088-1.549 3.716-3.518 3.716zm3.398-9.561c-1.024-.993-2.469-1.533-4.105-1.533-3.446 0-6.932 2.55-6.932 7.417 0 2.875 1.254 4.63 2.302 5.59 1.247 1.144 2.962 1.827 4.574 1.827 1.644 0 3.145-.62 4.169-1.715v1.43h4.042V10.27h-4.042v8.394h-.008zM131.005 28.115c-1.922 0-3.43-1.573-3.43-3.574 0-2 1.508-3.573 3.43-3.573 1.906 0 3.462 1.604 3.462 3.573 0 1.97-1.556 3.574-3.462 3.574zm0-10.983c-4.074 0-7.385 3.328-7.385 7.417 0 4.09 3.311 7.417 7.385 7.417s7.385-3.327 7.385-7.417c0-4.097-3.311-7.417-7.385-7.417zM98.409 27.982c-1.97 0-3.518-1.572-3.518-3.573s1.548-3.573 3.518-3.573c1.254 0 2.382.659 3.009 1.723l3.336-2.05C103.428 18.32 101.077 17 98.385 17 94.311 17 91 20.327 91 24.417s3.311 7.417 7.385 7.417c2.692 0 5.043-1.319 6.369-3.51l-3.336-2.049a3.496 3.496 0 01-3.01 1.707zM147.459 28.115c-1.97 0-3.518-1.573-3.518-3.574 0-2 1.548-3.573 3.518-3.573 1.254 0 2.382.659 3.009 1.723l3.335-2.049c-1.326-2.191-3.676-3.51-6.368-3.51-4.074 0-7.385 3.328-7.385 7.417 0 4.09 3.311 7.417 7.385 7.417 2.684 0 5.042-1.318 6.368-3.51l-3.335-2.049a3.496 3.496 0 01-3.009 1.708zM10.018 31.958a2.953 2.953 0 100-5.907 2.953 2.953 0 000 5.907zM33.674 31.958a2.954 2.954 0 100-5.907 2.954 2.954 0 000 5.907z" fill="#00234B"/><path d="M34.722 42.432A26.492 26.492 0 0121.85 45.76c-2.835 0-5.567-.452-8.132-1.278 0 0 20.774-30.747 20.79-30.763.103-.175.15-.326.158-.485v-2.97H9.034v3.947h20.202S9.2 43.853 9.192 43.87c-.103.174-.15.325-.159.484v2.533a30.445 30.445 0 0012.817 2.811 30.384 30.384 0 0014.786-3.812l-1.914-3.454zM58.505 28.234c-.104.174-.151.325-.159.484v2.97h15.056v-3.947h-9.624s9.465-14.015 9.473-14.015c.103-.175.15-.326.159-.485V10.272H58.33v3.946h9.648c0-.008-9.473 14.008-9.473 14.016z" fill="#00234B"/></svg>