<svg xmlns="http://www.w3.org/2000/svg" width="85.257" height="85.347" viewBox="0 0 85.257 85.347">
  <g id="Book_appointment_icon" data-name="Book appointment icon" transform="translate(-1144.953 -4031)">
    <path id="Path_38590" data-name="Path 38590" d="M0,0H18a110.892,110.892,0,0,0-5,31.75C13,48.75,18,68,18,68H0Z" transform="translate(1150 4044)" fill="rgba(71,199,198,0.13)"/>
    <g id="time" transform="translate(1144.953 4031)">
      <path id="Path_38583" data-name="Path 38583" d="M0,18.513a28.49,28.49,0,0,1,1.359-4.3A12.952,12.952,0,0,1,12.913,6.732c1.51-.076,3.021,0,4.531,0V3.712c.076-2.19,1.435-3.7,3.323-3.7a3.316,3.316,0,0,1,3.323,3.549V6.581H39.117V3.258A3.349,3.349,0,0,1,43.5.162a3.446,3.446,0,0,1,2.265,3.1V6.581H60.941V3.258A3.315,3.315,0,0,1,66,.54a3.423,3.423,0,0,1,1.586,2.87V6.657h3.927a15.128,15.128,0,0,1,5.211.906A13.46,13.46,0,0,1,85.257,19.8a3.378,3.378,0,0,1-3.172,3.549A3.318,3.318,0,0,1,78.612,20.1c-.3-4.229-3.021-6.721-7.249-6.721H67.586V16.4a3.315,3.315,0,0,1-3.4,3.625c-1.963,0-3.247-1.51-3.323-3.625V13.453H45.687v2.87c0,2.19-1.359,3.7-3.323,3.7A3.339,3.339,0,0,1,39.041,16.4V13.453H24.014v3.323a3.323,3.323,0,0,1-6.645-.076V13.3a47.866,47.866,0,0,0-5.739.3,6.564,6.564,0,0,0-5.135,6.268V71.525a6.576,6.576,0,0,0,3.776,6.419,8.173,8.173,0,0,0,3.323.68c4.531.076,8.986,0,13.517,0a3.274,3.274,0,0,1,3.172,2.039,3.115,3.115,0,0,1-.68,3.549,6.677,6.677,0,0,1-1.737,1.057H11.856a.929.929,0,0,0-.378-.151A12.838,12.838,0,0,1,1.359,77.567,26.431,26.431,0,0,1,.076,73.413C0,55.138,0,36.788,0,18.513Z" transform="translate(0 0.002)"/>
      <path id="Path_38584" data-name="Path 38584" d="M30.534,60.532c-2.039-.378-4.153-.6-6.192-1.133A27.671,27.671,0,0,1,9.918,49.809,26.774,26.774,0,0,1,4.481,38.482,27.606,27.606,0,0,1,6.218,20.735,28.143,28.143,0,0,1,18.225,7.444,27.335,27.335,0,0,1,34.536,3.895a27.933,27.933,0,0,1,19.105,9.742c0,.076.151.151.227.227h.151V9.03A3.281,3.281,0,0,1,58.4,5.858a2.954,2.954,0,0,1,2.19,2.719,81.514,81.514,0,0,1-.151,8.609,9.77,9.77,0,0,1-9.213,8.382c-2.416.076-4.757,0-7.174,0A3.24,3.24,0,0,1,40.8,22.245a3.337,3.337,0,0,1,3.247-3.323h5.211A18.285,18.285,0,0,0,43.6,13.788c-6.192-3.7-12.762-4.531-19.483-1.812A20.833,20.833,0,0,0,10.6,28.664c-1.284,8,1.359,14.8,7.476,20.087a20.807,20.807,0,0,0,16.009,4.984,23.176,23.176,0,0,0,8.609-2.568,3.322,3.322,0,0,1,4.984,2.19,3.383,3.383,0,0,1-1.661,3.625,28.985,28.985,0,0,1-9.59,3.323c-.755.151-1.51.227-2.265.3h-3.7Z" transform="translate(24.593 24.739)" fill="#008282"/>
      <path id="Path_38585" data-name="Path 38585" d="M18.361,14.055v4.758A3.679,3.679,0,0,1,17,21.833c-1.737,1.435-3.4,2.945-5.135,4.3a3.321,3.321,0,0,1-4.3-5.06C8.7,20.021,9.9,19.115,11.036,18.133a1.615,1.615,0,0,0,.68-1.359v-7.7a3.254,3.254,0,0,1,2.719-3.247,3.346,3.346,0,0,1,3.625,1.888,3.944,3.944,0,0,1,.3,1.586v4.758Z" transform="translate(41.749 37.762)" fill="#008282"/>
      <path id="Path_38586" data-name="Path 38586" d="M13.735,7.3a3.323,3.323,0,1,1-.076,6.645,3.24,3.24,0,0,1-3.247-3.323A3.352,3.352,0,0,1,13.735,7.3Z" transform="translate(68.199 47.84)" fill="#008282"/>
      <path id="Path_38587" data-name="Path 38587" d="M13.107,9.006a3.352,3.352,0,0,1,3.323,3.323,3.286,3.286,0,1,1-3.247-3.4Z" transform="translate(64.598 58.519)" fill="#008282"/>
    </g>
  </g>
</svg>
