<svg xmlns="http://www.w3.org/2000/svg" width="32.712" height="34.667" viewBox="0 0 32.712 34.667">
  <path id="Calendar" d="M15.4,18.6H11.769v3.467H15.4Zm7.269,0H19.039v3.467h3.635Zm7.269,0H26.308v3.467h3.635ZM33.577,6.467H31.76V3H28.125V6.467H13.587V3H9.952V6.467H8.135A3.536,3.536,0,0,0,4.518,9.933L4.5,34.2a3.553,3.553,0,0,0,3.635,3.467H33.577A3.564,3.564,0,0,0,37.212,34.2V9.933A3.564,3.564,0,0,0,33.577,6.467Zm0,27.734H8.135V15.133H33.577Z" transform="translate(-4.5 -3)" fill="#292f33"/>
</svg>
