<svg xmlns="http://www.w3.org/2000/svg" width="96.82" height="100.379" viewBox="0 0 96.82 100.379">
  <g id="Office_icon" data-name="Office icon" transform="translate(-1542.18 -4023)">
    <rect id="Rectangle_2495" data-name="Rectangle 2495" width="8" height="62" transform="translate(1567 4027)" fill="rgba(71,199,198,0.2)"/>
    <g id="online-appointment" transform="translate(1542.18 4023)">
      <path id="Path_38580" data-name="Path 38580" d="M26.834,0H53.746a22.576,22.576,0,0,1,2.165,1.624C59.855,5.491,63.722,9.435,67.666,13.3a2.3,2.3,0,0,0,1.547.619h19.1a7.884,7.884,0,0,1,2.707.309c3.635,1.005,5.8,4.021,5.8,8.2V72.152a8.155,8.155,0,0,1-.232,2.4c-.851,3.789-3.944,6.032-8.043,6.109H64.341c1.469,4.563,2.939,9.048,4.331,13.456h4.485a3.143,3.143,0,1,1,0,6.264H23.741a3.152,3.152,0,0,1-3.4-3.171c0-1.856,1.392-3.093,3.4-3.171h3.712c.619,0,.851-.155,1.005-.773C29.7,89.243,31.01,85.3,32.325,81.355a3.4,3.4,0,0,1,.155-.773H8.661a11.706,11.706,0,0,1-2.32-.155C2.4,79.731,0,76.638,0,72.462V22.349c0-5.1,3.325-8.429,8.429-8.429H20.338v-6.5a6.537,6.537,0,0,1,2.629-5.491A20.066,20.066,0,0,1,26.834,0ZM49.879,6.264H28.69c-1.7,0-2.088.387-2.088,2.088v56.3H70.3V26.757H53.359c-2.243,0-3.48-1.237-3.48-3.557V6.264ZM20.261,64.651V20.261H8.739c-1.933,0-2.4.464-2.4,2.4v42.07h13.92Zm70.3,0v-42.3c0-1.7-.541-2.243-2.243-2.243H74.7c.155.232.155.309.309.387,1.392,1.083,1.624,2.552,1.624,4.176v39.9h13.92ZM34.8,94.115H61.866v-.232c-1.315-4.176-2.707-8.429-4.1-12.605-.077-.309-.619-.541-.928-.619H39.749a.886.886,0,0,0-1.005.773c-.928,2.861-1.856,5.8-2.784,8.661-.387,1.315-.851,2.629-1.237,3.944ZM90.556,71.07H6.341v.851c0,2.088.387,2.475,2.4,2.475H88.314c1.856,0,2.32-.464,2.32-2.32V70.992ZM56.143,20.416h9.125c-3.016-3.016-6.109-6.187-9.125-9.28v9.28Z"/>
      <path id="Path_38581" data-name="Path 38581" d="M13.611,13.017c2.707-2.629,5.413-5.181,8.043-7.811a3.207,3.207,0,0,1,2.939-.928,2.816,2.816,0,0,1,2.32,2.088,3.036,3.036,0,0,1-.851,3.248l-8.507,8.275c-.619.619-1.237,1.16-1.856,1.779a3.07,3.07,0,0,1-4.563-.077C9.28,17.734,7.5,15.8,5.723,13.868a3.244,3.244,0,0,1,0-4.485,3.11,3.11,0,0,1,4.485.155c.541.541,1.083,1.16,1.624,1.7s1.005,1.083,1.624,1.7Z" transform="translate(32.479 28.357)" fill="#008282"/>
      <path id="Path_38582" data-name="Path 38582" d="M17.821,13.224H8a3.163,3.163,0,0,1-3.48-3.093A3.219,3.219,0,0,1,8,6.96H27.642a3.251,3.251,0,0,1,3.48,3.093,3.176,3.176,0,0,1-3.48,3.171Z" transform="translate(30.434 46.864)" fill="#008282"/>
    </g>
  </g>
</svg>
